<svg xmlns="http://www.w3.org/2000/svg" xmlns:xlink="http://www.w3.org/1999/xlink" version="1.1" class="marks" width="709" height="447" viewBox="0 0 709 447"><rect width="709" height="447" fill="white"/><g fill="none" stroke-miterlimit="10" transform="translate(39,10)"><g class="mark-group role-frame root" role="graphics-object" aria-roledescription="group mark container"><g transform="translate(0,0)"><path class="background" aria-hidden="true" d="M0.5,0.5h600v400h-600Z" stroke="#ddd"/><g><g class="mark-group role-axis" aria-hidden="true"><g transform="translate(0.5,400.5)"><path class="background" aria-hidden="true" d="M0,0h0v0h0Z" pointer-events="none"/><g><g class="mark-rule role-axis-grid" pointer-events="none"><line transform="translate(0,-400)" x2="0" y2="400" stroke="#ddd" stroke-width="1" opacity="1"/><line transform="translate(60,-400)" x2="0" y2="400" stroke="#ddd" stroke-width="1" opacity="1"/><line transform="translate(120,-400)" x2="0" y2="400" stroke="#ddd" stroke-width="1" opacity="1"/><line transform="translate(180,-400)" x2="0" y2="400" stroke="#ddd" stroke-width="1" opacity="1"/><line transform="translate(240,-400)" x2="0" y2="400" stroke="#ddd" stroke-width="1" opacity="1"/><line transform="translate(300,-400)" x2="0" y2="400" stroke="#ddd" stroke-width="1" opacity="1"/><line transform="translate(360,-400)" x2="0" y2="400" stroke="#ddd" stroke-width="1" opacity="1"/><line transform="translate(420,-400)" x2="0" y2="400" stroke="#ddd" stroke-width="1" opacity="1"/><line transform="translate(480,-400)" x2="0" y2="400" stroke="#ddd" stroke-width="1" opacity="1"/><line transform="translate(540,-400)" x2="0" y2="400" stroke="#ddd" stroke-width="1" opacity="1"/><line transform="translate(600,-400)" x2="0" y2="400" stroke="#ddd" stroke-width="1" opacity="1"/></g></g><path class="foreground" aria-hidden="true" d="" pointer-events="none" display="none"/></g></g><g class="mark-group role-axis" aria-hidden="true"><g transform="translate(0.5,0.5)"><path class="background" aria-hidden="true" d="M0,0h0v0h0Z" pointer-events="none"/><g><g class="mark-rule role-axis-grid" pointer-events="none"><line transform="translate(0,400)" x2="600" y2="0" stroke="#ddd" stroke-width="1" opacity="1"/><line transform="translate(0,360)" x2="600" y2="0" stroke="#ddd" stroke-width="1" opacity="1"/><line transform="translate(0,320)" x2="600" y2="0" stroke="#ddd" stroke-width="1" opacity="1"/><line transform="translate(0,280)" x2="600" y2="0" stroke="#ddd" stroke-width="1" opacity="1"/><line transform="translate(0,240)" x2="600" y2="0" stroke="#ddd" stroke-width="1" opacity="1"/><line transform="translate(0,200)" x2="600" y2="0" stroke="#ddd" stroke-width="1" opacity="1"/><line transform="translate(0,160)" x2="600" y2="0" stroke="#ddd" stroke-width="1" opacity="1"/><line transform="translate(0,120)" x2="600" y2="0" stroke="#ddd" stroke-width="1" opacity="1"/><line transform="translate(0,80)" x2="600" y2="0" stroke="#ddd" stroke-width="1" opacity="1"/><line transform="translate(0,40)" x2="600" y2="0" stroke="#ddd" stroke-width="1" opacity="1"/><line transform="translate(0,0)" x2="600" y2="0" stroke="#ddd" stroke-width="1" opacity="1"/></g></g><path class="foreground" aria-hidden="true" d="" pointer-events="none" display="none"/></g></g><g class="mark-group role-axis" role="graphics-symbol" aria-roledescription="axis" aria-label="X-axis titled 't' for a linear scale with values from 0 to 50"><g transform="translate(0.5,400.5)"><path class="background" aria-hidden="true" d="M0,0h0v0h0Z" pointer-events="none"/><g><g class="mark-rule role-axis-tick" pointer-events="none"><line transform="translate(0,0)" x2="0" y2="5" stroke="#888" stroke-width="1" opacity="1"/><line transform="translate(60,0)" x2="0" y2="5" stroke="#888" stroke-width="1" opacity="1"/><line transform="translate(120,0)" x2="0" y2="5" stroke="#888" stroke-width="1" opacity="1"/><line transform="translate(180,0)" x2="0" y2="5" stroke="#888" stroke-width="1" opacity="1"/><line transform="translate(240,0)" x2="0" y2="5" stroke="#888" stroke-width="1" opacity="1"/><line transform="translate(300,0)" x2="0" y2="5" stroke="#888" stroke-width="1" opacity="1"/><line transform="translate(360,0)" x2="0" y2="5" stroke="#888" stroke-width="1" opacity="1"/><line transform="translate(420,0)" x2="0" y2="5" stroke="#888" stroke-width="1" opacity="1"/><line transform="translate(480,0)" x2="0" y2="5" stroke="#888" stroke-width="1" opacity="1"/><line transform="translate(540,0)" x2="0" y2="5" stroke="#888" stroke-width="1" opacity="1"/><line transform="translate(600,0)" x2="0" y2="5" stroke="#888" stroke-width="1" opacity="1"/></g><g class="mark-text role-axis-label" pointer-events="none"><text text-anchor="start" transform="translate(0,15)" font-family="sans-serif" font-size="10px" fill="#000" opacity="1">0</text><text text-anchor="middle" transform="translate(60,15)" font-family="sans-serif" font-size="10px" fill="#000" opacity="1">5</text><text text-anchor="middle" transform="translate(120,15)" font-family="sans-serif" font-size="10px" fill="#000" opacity="1">10</text><text text-anchor="middle" transform="translate(180,15)" font-family="sans-serif" font-size="10px" fill="#000" opacity="1">15</text><text text-anchor="middle" transform="translate(240,15)" font-family="sans-serif" font-size="10px" fill="#000" opacity="1">20</text><text text-anchor="middle" transform="translate(300,15)" font-family="sans-serif" font-size="10px" fill="#000" opacity="1">25</text><text text-anchor="middle" transform="translate(360,15)" font-family="sans-serif" font-size="10px" fill="#000" opacity="1">30</text><text text-anchor="middle" transform="translate(420,15)" font-family="sans-serif" font-size="10px" fill="#000" opacity="1">35</text><text text-anchor="middle" transform="translate(480,15)" font-family="sans-serif" font-size="10px" fill="#000" opacity="1">40</text><text text-anchor="middle" transform="translate(540,15)" font-family="sans-serif" font-size="10px" fill="#000" opacity="1">45</text><text text-anchor="end" transform="translate(600,15)" font-family="sans-serif" font-size="10px" fill="#000" opacity="1">50</text></g><g class="mark-rule role-axis-domain" pointer-events="none"><line transform="translate(0,0)" x2="600" y2="0" stroke="#888" stroke-width="1" opacity="1"/></g><g class="mark-text role-axis-title" pointer-events="none"><text text-anchor="middle" transform="translate(300,30)" font-family="sans-serif" font-size="11px" font-weight="bold" fill="#000" opacity="1">t</text></g></g><path class="foreground" aria-hidden="true" d="" pointer-events="none" display="none"/></g></g><g class="mark-group role-axis" role="graphics-symbol" aria-roledescription="axis" aria-label="Y-axis titled 'x' for a linear scale with values from 0 to 20"><g transform="translate(0.5,0.5)"><path class="background" aria-hidden="true" d="M0,0h0v0h0Z" pointer-events="none"/><g><g class="mark-rule role-axis-tick" pointer-events="none"><line transform="translate(0,400)" x2="-5" y2="0" stroke="#888" stroke-width="1" opacity="1"/><line transform="translate(0,360)" x2="-5" y2="0" stroke="#888" stroke-width="1" opacity="1"/><line transform="translate(0,320)" x2="-5" y2="0" stroke="#888" stroke-width="1" opacity="1"/><line transform="translate(0,280)" x2="-5" y2="0" stroke="#888" stroke-width="1" opacity="1"/><line transform="translate(0,240)" x2="-5" y2="0" stroke="#888" stroke-width="1" opacity="1"/><line transform="translate(0,200)" x2="-5" y2="0" stroke="#888" stroke-width="1" opacity="1"/><line transform="translate(0,160)" x2="-5" y2="0" stroke="#888" stroke-width="1" opacity="1"/><line transform="translate(0,120)" x2="-5" y2="0" stroke="#888" stroke-width="1" opacity="1"/><line transform="translate(0,80)" x2="-5" y2="0" stroke="#888" stroke-width="1" opacity="1"/><line transform="translate(0,40)" x2="-5" y2="0" stroke="#888" stroke-width="1" opacity="1"/><line transform="translate(0,0)" x2="-5" y2="0" stroke="#888" stroke-width="1" opacity="1"/></g><g class="mark-text role-axis-label" pointer-events="none"><text text-anchor="end" transform="translate(-7,403)" font-family="sans-serif" font-size="10px" fill="#000" opacity="1">0</text><text text-anchor="end" transform="translate(-7,363)" font-family="sans-serif" font-size="10px" fill="#000" opacity="1">2</text><text text-anchor="end" transform="translate(-7,323)" font-family="sans-serif" font-size="10px" fill="#000" opacity="1">4</text><text text-anchor="end" transform="translate(-7,283)" font-family="sans-serif" font-size="10px" fill="#000" opacity="1">6</text><text text-anchor="end" transform="translate(-7,243)" font-family="sans-serif" font-size="10px" fill="#000" opacity="1">8</text><text text-anchor="end" transform="translate(-7,203)" font-family="sans-serif" font-size="10px" fill="#000" opacity="1">10</text><text text-anchor="end" transform="translate(-7,163)" font-family="sans-serif" font-size="10px" fill="#000" opacity="1">12</text><text text-anchor="end" transform="translate(-7,123.00000000000001)" font-family="sans-serif" font-size="10px" fill="#000" opacity="1">14</text><text text-anchor="end" transform="translate(-7,82.99999999999999)" font-family="sans-serif" font-size="10px" fill="#000" opacity="1">16</text><text text-anchor="end" transform="translate(-7,42.99999999999999)" font-family="sans-serif" font-size="10px" fill="#000" opacity="1">18</text><text text-anchor="end" transform="translate(-7,3)" font-family="sans-serif" font-size="10px" fill="#000" opacity="1">20</text></g><g class="mark-rule role-axis-domain" pointer-events="none"><line transform="translate(0,400)" x2="0" y2="-400" stroke="#888" stroke-width="1" opacity="1"/></g><g class="mark-text role-axis-title" pointer-events="none"><text text-anchor="middle" transform="translate(-23,200) rotate(-90) translate(0,-2)" font-family="sans-serif" font-size="11px" font-weight="bold" fill="#000" opacity="1">x</text></g></g><path class="foreground" aria-hidden="true" d="" pointer-events="none" display="none"/></g></g><g class="mark-group role-scope pathgroup" role="graphics-object" aria-roledescription="group mark container"><g transform="translate(0,0)"><path class="background" aria-hidden="true" d="M0,0h600v400h-600Z"/><g><g class="mark-line role-mark marks" role="graphics-object" aria-roledescription="line mark container"><path aria-label="t: 0; x: 0; position: x1" role="graphics-symbol" aria-roledescription="line mark" d="M0,400L1.2,399.28180774L2.4,397.14882706000003L3.6,393.6651042L4.8,388.93494006L6,383.09931922000004L7.2,376.33109351999997L8.399999999999999,368.82909524L9.6,360.8113927L10.8,352.50793304L12,344.15283731999995L13.200000000000001,335.97662578L14.4,328.19865172L15.600000000000001,321.0200146L16.799999999999997,314.61720326L18,309.13669244L19.2,304.69068012L20.400000000000002,301.35410887999996L21.6,299.1630674L22.8,298.11461598L24,298.16802692L25.200000000000003,299.24737822000003L26.400000000000002,301.24538896L27.599999999999998,304.0283388L28.8,307.44187532L30,311.31747964L31.200000000000003,315.47933906000003L32.400000000000006,319.75136044L33.599999999999994,323.96405538L34.8,327.96103462L36,331.60486554L37.2,334.78207302L38.4,337.40709734L39.6,339.42506436L40.800000000000004,340.81326998L42.00000000000001,341.58133022000004L43.2,341.77000097999996L44.400000000000006,341.44872248L45.6,340.7119932L46.8,339.67472291999997L48,338.46675448L49.199999999999996,337.22677552000005L50.400000000000006,336.09586532L51.599999999999994,335.21093592L52.800000000000004,334.69833094L54,334.66783938L55.199999999999996,335.2073663L56.4,336.3784766L57.6,338.2129947L58.800000000000004,340.71080272L60,343.83893312L61.199999999999996,347.532002L62.400000000000006,351.69397754L63.6,356.20122618L64.80000000000001,360.90672922L66,365.6453172L67.19999999999999,370.23972866L68.4,374.50726768L69.6,378.26680958000003L70.80000000000001,381.34588942L72,383.58760282L73.2,384.85705436L74.4,385.04710294L75.6,384.08317994000004L76.8,381.92698738L78,378.57892614L79.2,374.07914894L80.4,368.50718494L81.60000000000001,361.9801346L82.80000000000001,354.64948748L84.00000000000001,346.69666593999995L85.19999999999999,338.32744673999997L86.4,329.76545326L87.6,321.24494744000003L88.80000000000001,313.0031764L90,305.27254672000004L91.2,298.27290596L92.4,292.20420874L93.6,287.23983068L94.8,283.52077082L96,281.15095108L97.2,280.19378178L98.39999999999999,280.670116L99.60000000000001,282.55766546L100.80000000000001,285.79189702L102.00000000000001,290.26837558L103.19999999999999,295.84646604L104.39999999999999,302.35425822L105.60000000000001,309.59453412000005L106.80000000000001,317.35155976L108,325.39845398L109.2,333.50486722L110.39999999999999,341.44469216L111.60000000000002,349.00352904L112.8,355.9856385L114,362.22013468L115.2,367.56620146L116.39999999999999,371.91715134000003L117.60000000000001,375.2031905L118.80000000000001,377.39280277999995L120,378.49271674000005L121.19999999999999,378.54647332L122.39999999999999,377.6316633L123.60000000000001,375.85595382L124.80000000000001,373.35206714L126,370.27191361999996L127.2,366.78011114000003L128.4,363.04714502L129.60000000000002,359.24243458L130.8,355.52757385999996L132,352.05000606L133.2,348.93737332L134.39999999999998,346.29275518L135.6,344.19097514L136.8,342.67611124L138,341.76030042L139.2,341.42387536L140.39999999999998,341.61682084L141.60000000000002,342.26148542L142.8,343.25643514L144,344.48129226L145.2,345.80236308L146.4,347.07882872L147.60000000000002,348.16925032L148.8,348.93812806L150,349.26225072L151.2,349.03658024L152.4,348.17943326L153.6,346.63674844L154.8,344.38526312L156,341.43446474L157.20000000000002,337.82722918L158.4,333.63910896000004L159.60000000000002,328.97628606L160.8,323.97225602L162,318.78335892L163.20000000000002,313.58331834L164.39999999999998,308.556988L165.60000000000002,303.89353784L166.8,299.77933409999997L168.00000000000003,296.39078126L169.2,293.88739735999997L170.39999999999998,292.40538686L171.60000000000002,292.05195882L172.8,292.90061127999996L174,294.98756874000003L175.2,298.30951694L176.39999999999998,302.8227324L177.60000000000002,308.44365262L178.79999999999998,315.05087951999997L180,322.48855605999995L181.2,330.57100452000003L182.4,339.08846842L183.6,347.81375782000003L184.8,356.50956534L186,364.93619286L187.2,372.85941482L188.4,380.05819714L189.6,386.33199554000004L190.8,391.50737254L192,395.44369606L193.20000000000002,398.03771616L194.4,399.22685726L195.6,398.99110962000003L196.79999999999998,397.35345515999995L198,394.37881577999997L199.20000000000002,390.17156636L200.39999999999998,384.87170662L201.60000000000002,378.64983438L202.79999999999998,371.70110658L204.00000000000003,364.23841004L205.20000000000002,356.4849921L206.39999999999998,348.66682036L207.60000000000002,341.00494866L208.79999999999998,333.70816542L210,326.96618782L211.20000000000002,320.94364446000003L212.39999999999998,315.77505796L213.60000000000002,311.56100066L214.79999999999998,308.36555224L216,306.21513822000003L217.20000000000002,305.09877676L218.4,304.9697079L219.6,305.7483279L220.79999999999998,307.32630274L222,309.57169096L223.20000000000005,312.33486954L224.4,315.45502677999997L225.6,318.76696648L226.79999999999995,322.10795756L228,325.32436265999996L229.20000000000002,328.27778978L230.4,330.85053044L231.6,332.95007666L232.79999999999998,334.5125457L234,335.50488412L235.20000000000002,335.92577128L236.39999999999998,335.80519247999996L237.60000000000002,335.20270400000004L238.79999999999998,334.2044639L240,332.91914924L241.20000000000002,331.47292514000003L242.39999999999998,330.00366706L243.60000000000002,328.65466754L244.79999999999998,327.56807896L245.99999999999997,326.8783543L247.20000000000002,326.70594892L248.39999999999998,327.15153690000005L249.60000000000002,328.29097576L250.79999999999998,330.17122612000003L252,332.80739558L253.20000000000002,336.1810342L254.4,340.23976036L255.6,344.89824568L256.8,350.04053466L258,355.52362348L259.20000000000005,361.18217402L260.4,366.83419406L261.6,372.28747748L262.79999999999995,377.34656694L264,381.81998136000004L265.2,385.52743688L266.4,388.3067902L267.6,390.02044044L268.79999999999995,390.56094458L270,389.85562963999996L271.2,387.87002008L272.4,384.60994282L273.6,380.12221922L274.79999999999995,374.49390669999997L276,367.85010468L277.2,360.35039348L278.4,352.18402472L279.6,343.56402868L280.79999999999995,334.72044406000003L282,325.89290828L283.20000000000005,317.32287096L284.4,309.24570732L285.6,301.88301206L286.8,295.43534916L288,290.07571552L289.20000000000005,285.94395135999997L290.4,283.14229545999996L291.59999999999997,281.73224168L292.8,281.73280588L294,283.12026063999997L295.20000000000005,285.829342L296.4,289.75587836L297.6,294.7607406L298.8,300.67496414L300,307.30585185999996L301.2,314.44383128000004L302.4,321.86981366L303.6,329.36278442L304.8,336.70734804L306,343.7009541L307.2,350.16054352000003L308.40000000000003,355.92837832000004L309.6,360.87684908L310.8,364.91209435999997L312,367.97631137999997L313.2,370.04868716L314.40000000000003,371.14493166L315.6,371.31544688L316.8,370.64221722L318,369.23455432000003L319.20000000000005,367.2238719L320.40000000000003,364.7577021L321.6,361.99319196L322.79999999999995,359.09033788L324,356.20522328000004L325.20000000000005,353.48352468L326.40000000000003,351.05453781999995L327.6,349.02595606L328.79999999999995,347.47960158L330,346.46827346000003L331.20000000000005,346.01383174L332.4,346.10658908L333.6,346.70602971999995L334.79999999999995,347.74282430000005L336.00000000000006,349.1220578L337.20000000000005,350.72754152L338.4,352.42703644L339.6,354.07818054L340.79999999999995,355.53488400000003L341.99999999999994,356.65393842L343.20000000000005,357.30157594L344.4,357.35971656L345.6,356.73165194L346.79999999999995,355.34693574L348,353.16527968L349.20000000000005,350.1792923L350.4,346.41594111999996L351.59999999999997,341.93666756L352.79999999999995,336.83613532L354,331.23964531999997L355.20000000000005,325.29930138000003L356.4,319.18905974L357.59999999999997,313.09883786L358.8,307.22789626L360,301.77773492L361.2,296.94476654L362.4,292.91303935999997L363.59999999999997,289.84728137999997L364.8,287.88652844L366,287.13857844L367.2,287.6754841L368.4,289.53026034000004L369.6,292.69493756L370.8,297.12004362000005L372,302.71554462L373.2,309.35322155999995L374.4,316.87040648L375.6,325.07495206L376.8,333.75126294L378,342.66717748L379.2,351.58145732L380.4,360.25161928L381.6,368.44183152L382.8,375.93059284L384,382.51792198L385.2,388.0318015L386.40000000000003,392.33364804L387.59999999999997,395.3226164L388.8,396.93858738L390,397.1637377L391.2,396.02264208L392.40000000000003,393.58091108L393.59999999999997,389.94242186L394.79999999999995,385.24524998L396,379.65645742L397.20000000000005,373.36593338L398.40000000000003,366.57951774000003L399.59999999999997,359.51166252L400.79999999999995,352.37790226L402,345.38740943999994L403.20000000000005,338.7359063L404.40000000000003,332.59918952L405.59999999999997,327.12749962L406.79999999999995,322.44093412L408.00000000000006,318.62606272000005L409.20000000000005,315.73385722L410.40000000000003,313.77899804L411.59999999999997,312.74056740000003L412.79999999999995,312.56408674L413.99999999999994,313.16480476000004L415.20000000000005,314.43209638L416.40000000000003,316.23479078L417.59999999999997,318.4272127L418.79999999999995,320.85569486L420,323.36530300000004L421.20000000000005,325.80650786L422.40000000000003,328.04154166L423.59999999999997,329.95019048L424.79999999999995,331.43479646000003L426,332.42427494L427.20000000000005,332.8769913L428.40000000000003,332.78238596L429.59999999999997,332.16128628L430.79999999999995,331.06489412L432,329.57249066L433.2,327.78794954L434.40000000000003,325.83519603999997L435.59999999999997,323.85279204L436.8,321.98785998L438,320.38958624L439.2,319.20256102L440.40000000000003,318.56021926L441.59999999999997,318.57864426L442.8,319.35098262L444,320.94269714L445.2,323.38785228L446.4000000000001,326.68658904L447.6,330.8039003L448.8,335.66976922L450,341.18068084L451.2,347.20246483999995L452.4,353.5743767L453.5999999999999,360.11427610000004L454.8,366.62471928L456,372.89974638L457.2,378.73211646L458.40000000000003,383.92072509999997L459.59999999999997,388.27792998L460.8,391.6365124L462,393.85601372L463.2,394.82820794L464.40000000000003,394.48150172L465.59999999999997,392.78409206L466.8,389.74575663999997L468,385.41820158L469.20000000000005,379.89394408L470.40000000000003,373.30376084L471.59999999999997,365.81278646L472.79999999999995,357.61539458L474,348.92904034000003L475.20000000000005,339.98728048000004L476.40000000000003,331.03221778L477.59999999999997,322.30663802L478.79999999999995,314.04611886L480,306.47139092L481.20000000000005,299.78122274L482.40000000000003,294.14608142000003L483.59999999999997,289.70279238L484.79999999999995,286.55038506L486.00000000000006,284.74726792L487.20000000000005,284.30982683999997L488.40000000000003,285.21248944L489.59999999999997,287.38924352000004L490.79999999999995,290.73654562L491.99999999999994,295.11750406L493.20000000000005,300.36717568L494.40000000000003,306.29877474L495.59999999999997,312.71056044L496.79999999999995,319.39314562L498,326.13695526L499.20000000000005,332.73955982L500.40000000000003,339.01261442L501.59999999999997,344.7881522L502.79999999999995,349.92400492L504,354.30815914L505.20000000000005,357.8618969L506.40000000000003,360.54161705999996L507.59999999999997,362.33928388L508.8,363.28150153999997L510,363.42726592L511.2,362.86449444L512.4000000000001,361.70548154L513.6,360.08146672L514.8,358.13653594L516,356.02110094L517.2,353.8852167L518.4000000000001,351.87200174000003L519.6,350.1114217L520.8,348.71468066L522,347.76944113999997L523.2,347.33606038L524.4000000000001,347.44499082L525.5999999999999,348.0954468L526.8,349.25539034L528,350.86283692L529.2,352.82843094L530.4,355.03919063999996L531.5999999999999,357.36327646L532.8,359.65559659999997L534,361.7640303L535.2,363.53602438L536.4,364.8253034L537.5999999999999,365.498428L538.8000000000001,365.44094052L540,364.56285207999997L541.2,362.80324858L542.4,360.13382642L543.5999999999999,356.56120818L544.8,352.12793489999996L546,346.91208088L547.2,341.02548948L548.4,334.61068090000003L549.5999999999999,327.83653350000003L550.8,320.89288722L552,313.98425984L553.2,307.32290082000003L554.4,301.12143466000003L555.5999999999999,295.58536172L556.8,290.90569284000003L558,287.25198948L559.2,284.76606864L560.4,283.55660814000004L561.5999999999999,283.69485622L562.8,285.21160960000003L564,288.09557802L565.2,292.2932035L566.4000000000001,297.70994868L567.6,304.21301576L568.8,311.63540466L570,319.78116988L571.2,328.43169236L572.4000000000001,337.35274416000004L573.6,346.30209607999996L574.8,355.03739732L576,363.32404754L577.2,370.94278096L578.4000000000001,377.69669405999997L579.6,383.41746808L580.8,387.97056832L582,391.25923916L583.1999999999999,393.22715888L584.4000000000001,393.85966714L585.6,393.18353093999997L586.8,391.26526818L588,388.20810074L589.2,384.14765892L590.4000000000001,379.24660458L591.6,373.68837858L592.8,367.6703099L594,361.39634545999996L595.2,355.06967230000004L596.4000000000001,348.88550576L597.6,343.02430954L600,332.8832201" stroke="#4c78a8" stroke-width="2"/></g></g><path class="foreground" aria-hidden="true" d="" display="none"/></g><g transform="translate(0,0)"><path class="background" aria-hidden="true" d="M0,0h600v400h-600Z"/><g><g class="mark-line role-mark marks" role="graphics-object" aria-roledescription="line mark container"><path aria-label="t: 0; x: 11; position: x2" role="graphics-symbol" aria-roledescription="line mark" d="M0,179.99999999999997L1.2,180.49746200000004L2.4,181.959565L3.6,184.2967522L4.8,187.3640216L6,190.96713680000002L7.2,194.870981L8.399999999999999,198.8097226L9.6,202.49839305999998L10.8,205.64542165999998L12,207.96563030000002L13.200000000000001,209.19317264L14.4,209.09390154L15.600000000000001,207.47666832L16.799999999999997,204.20309522000002L18,199.1954196L19.2,192.4420788L20.400000000000002,184.0007924L21.6,173.99898760000002L22.8,162.631521L24,150.1557456L25.200000000000003,136.884081L26.400000000000002,123.17433179999999L27.599999999999998,109.41809559999997L28.8,96.02766919999999L30,83.4219262L31.200000000000003,72.0116752L32.400000000000006,62.18504179999997L33.599999999999994,54.293405000000035L34.8,48.638417000000004L36,45.46058799999999L37.2,44.92986819999998L38.4,47.138583999999994L39.6,52.09700719999999L40.800000000000004,59.73173219999999L42.00000000000001,69.88694139999998L43.2,82.3285292L44.400000000000006,96.7509556L45.6,112.78659239999999L46.8,130.01724280000002L48,147.9874306L49.199999999999996,166.218989L50.400000000000006,184.22643760000003L51.599999999999994,201.53259865999996L52.800000000000004,217.68390544L54,232.26485642L55.199999999999996,244.91110940000002L56.4,255.32075476L57.6,263.26337638L58.800000000000004,268.58658942L60,271.2198371L61.199999999999996,271.17532946L62.400000000000006,268.54611122L63.6,263.50135098000004L64.80000000000001,256.27904531999997L66,247.1764243L67.19999999999999,236.53842817999998L68.4,224.74469348000002L69.6,212.19553844L70.80000000000001,199.29747200000003L72,186.4487644L73.2,174.025609L74.4,162.369385L75.6,151.7754774L76.8,142.4840544L78,134.673126L79.2,128.4541156L80.4,123.87008019999999L81.60000000000001,120.89661679999999L82.80000000000001,119.44538680000001L84.00000000000001,119.37008879999999L85.19999999999999,120.4746236L86.4,122.5231066L87.6,125.2513166L88.80000000000001,128.37911580000002L90,131.6233408L91.2,134.7106502L92.4,137.38981200000003L93.6,139.44294639999998L94.8,140.69527480000002L96,141.02298800000003L97.2,140.3589202L98.39999999999999,138.69580259999998L99.60000000000001,136.0869636L100.80000000000001,132.64444459999999L102.00000000000001,128.53459900000001L103.19999999999999,123.971345L104.39999999999999,119.20732959999998L105.60000000000001,114.52335059999999L106.80000000000001,110.2164438L108,106.58710660000001L109.2,103.92615699999999L110.39999999999999,102.501747L111.60000000000002,102.54704820000002L112.8,104.24910019999997L114,107.7392728L115.2,113.08573819999998L116.39999999999999,120.28826399999998L117.60000000000001,129.2755636L118.80000000000001,139.90533679999996L120,151.96703259999998L121.19999999999999,165.1872682L122.39999999999999,179.2377284L123.60000000000001,193.7452848L124.80000000000001,208.30398047999998L126,222.48845534L127.2,235.86833557999998L128.4,248.02306276000002L129.60000000000002,258.55662478L130.8,267.11164802L132,273.38233146L133.2,277.12574228L134.39999999999998,278.17105116L135.6,276.42635796L136.8,271.88284598L138,264.61609906L139.2,254.78451904L140.39999999999998,242.62488626L141.60000000000002,228.4452103L142.8,212.61511662L144,195.5541046L145.2,177.71809040000002L146.4,159.58471039999998L147.60000000000002,141.63790559999998L148.8,124.35233339999998L150,108.17815800000004L151.2,93.52675939999999L152.4,80.75785939999997L153.6,70.168519L154.8,61.98438560000001L156,56.35348579999997L157.20000000000002,53.342772199999985L158.4,52.9375204L159.60000000000002,55.04357679999998L160.8,59.4923498L162,66.04833779999998L163.20000000000002,74.41889160000001L164.39999999999998,84.26583820000002L165.60000000000002,95.2185144L166.8,106.88771800000004L168.00000000000003,118.88005339999998L169.2,130.81213119999998L170.39999999999998,142.3241006L171.60000000000002,153.0920118L172.8,162.83856339999997L174,171.34184679999998L175.2,178.44178079999998L176.39999999999998,184.0440216L177.60000000000002,188.1212256L178.79999999999998,190.7116528L180,191.9151888L181.2,191.88697600000003L182.4,190.82892139999998L183.6,188.97944099999998L184.8,186.601859L186,183.97193399999998L187.2,181.3650162L188.4,179.0433502L189.6,177.24403339999998L190.8,176.16811219999997L192,175.97125040000003L193.20000000000002,176.7563472L194.4,178.56840099999997L195.6,181.39182979999998L196.79999999999998,185.15036139999998L198,189.7095072L199.20000000000002,194.8815324L200.39999999999998,200.43273517999998L201.60000000000002,206.09275923999996L202.79999999999998,211.56558246L204.00000000000003,216.54175641999998L205.20000000000002,220.71142224L206.39999999999998,223.77759454000002L207.60000000000002,225.46919204L208.79999999999998,225.55330012L210,223.84617612L211.20000000000002,220.22255397999996L212.39999999999998,214.62286590000002L213.60000000000002,207.05807662L214.79999999999998,197.61191360000004L216,186.4403744L217.20000000000002,173.7684946L218.4,159.8844634L219.6,145.1312728L220.79999999999998,129.89618360000003L222,114.59837259999999L223.20000000000005,99.67519440000001L224.4,85.567552L225.6,72.70489939999996L226.79999999999995,61.49042020000004L228,52.28692340000003L229.20000000000002,45.403971200000015L230.4,41.086715799999986L231.6,39.50685559999996L232.79999999999998,40.756051400000004L234,44.842049399999965L235.20000000000002,51.687666600000036L236.39999999999998,61.13268179999998L237.60000000000002,72.93857680000002L238.79999999999998,86.79596799999997L240,102.334464L241.20000000000002,119.13460860000002L242.39999999999998,136.7414796L243.60000000000002,154.67946540000003L244.79999999999998,172.4676918L245.99999999999997,189.63555100000002L247.20000000000002,205.73778426L248.39999999999998,220.36858258L249.60000000000002,233.17421228L250.79999999999998,243.86372376L252,252.21737556L253.20000000000002,258.0924898L254.4,261.42655066L255.6,262.23745915999996L256.8,260.62096278L258,256.74538128L259.20000000000005,250.8438496L260.4,243.20438872L261.6,234.1581932L262.79999999999995,224.06658784L264,213.30715229999998L265.2,202.25953910000004L266.4,191.29151900000002L267.6,180.7457736L268.79999999999995,170.92792599999999L270,162.096244L271.2,154.45339220000002L272.4,148.14051899999998L273.6,143.233883L274.79999999999995,139.74411679999997L276,137.61812880000002L277.2,136.74354119999998L278.4,136.95546539999998L279.6,138.0453242L280.79999999999995,139.77135619999999L282,141.87037039999998L283.20000000000005,144.0702752L284.4,146.10287340000002L285.6,147.716409L286.8,148.6873616L288,148.8310126L289.20000000000005,148.01035800000002L290.4,146.14300519999998L291.59999999999997,143.2057736L292.8,139.2368028L294,134.3350752L295.20000000000005,128.6573568L296.4,122.41266400000002L297.6,115.85445800000001L298.8,109.27086140000002L300,102.97326779999997L301.2,97.2837792L302.4,92.52195799999998L303.6,88.99140379999997L304.8,86.96668220000001L306,86.68111559999998L307.2,88.31592239999999L308.40000000000003,91.99114239999999L309.6,97.75871619999998L310.8,105.59801319999997L312,115.41400939999997L313.2,127.0382186L314.40000000000003,140.232375L315.6,154.6947652L316.8,170.0690076L318,185.9549784L319.20000000000005,201.92151082L320.40000000000003,217.5204179L321.6,232.30134064000003L322.79999999999995,245.82689004000002L324,257.68753654L325.20000000000005,267.51570742L326.40000000000003,274.9985787L327.6,279.88909436L328.79999999999995,282.01480771999996L330,281.28421828L331.20000000000005,277.69036774L332.4,271.31155772L333.6,262.30915608L334.79999999999995,250.92256458L336.00000000000006,237.4615233L337.20000000000005,222.29602446000004L338.4,205.84419402000003L339.6,188.55857360000005L340.79999999999995,170.9112918L341.99999999999994,153.3786556L343.20000000000005,136.42570740000002L344.4,120.49129939999999L345.6,105.9742114L346.79999999999995,93.22079899999997L348,82.51460380000002L349.20000000000005,74.06828019999998L350.4,68.01810860000002L351.59999999999997,64.42126840000002L352.79999999999995,63.25594219999999L354,64.42421559999998L355.20000000000005,67.75763879999998L356.4,73.02521300000002L357.59999999999997,79.9434808L358.8,88.18832260000002L360,97.40799820000001L361.2,107.23693519999999L362.4,117.3097324L363.59999999999997,127.27485439999997L364.8,136.8074974L366,145.6211494L367.2,153.47741840000003L368.4,160.19376999999997L369.6,165.6489014L370.8,169.7855674L372,172.6107764L373.2,174.19337399999998L374.4,174.65913520000004L375.6,174.18357799999998L376.8,172.98280400000002L378,171.30274180000004L379.2,169.40723699999998L380.4,167.56546559999998L381.6,166.0391876L382.8,165.0703474L384,164.8695282L385.2,165.60572159999998L386.40000000000003,167.39783219999998L387.59999999999997,170.30826279999997L388.8,174.33884700000002L390,179.4293084L391.2,185.4583184L392.40000000000003,192.2471346L393.59999999999997,199.56569019999998L394.79999999999995,207.14091714L396,214.66699254000002L397.20000000000005,221.81712318L398.40000000000003,228.25642137999998L399.59999999999997,233.65537983999997L400.79999999999995,237.70342645999997L402,240.1220341L403.20000000000005,240.67687302000002L404.40000000000003,239.18852619999998L405.59999999999997,235.54133954000002L406.79999999999995,229.69004576L408.00000000000006,221.66388285999997L409.20000000000005,211.56802018000002L410.40000000000003,199.5822048L411.59999999999997,185.9566448L412.79999999999995,171.00524960000004L413.99999999999994,155.09644659999998L415.20000000000005,138.64188339999995L416.40000000000003,122.08341099999997L417.59999999999997,105.8787986L418.79999999999995,90.48669459999998L420,76.35136260000004L421.20000000000005,63.88774840000004L422.40000000000003,53.46740900000002L423.59999999999997,45.405819400000034L424.79999999999995,39.9515134L426,37.27745400000004L427.20000000000005,37.474952399999985L428.40000000000003,40.55035359999999L429.59999999999997,46.424615999999965L430.79999999999995,54.93580039999997L432,65.84438239999999L433.2,78.8411998L434.40000000000003,93.5577462L435.59999999999997,109.57844560000001L436.8,126.45446439999999L438,143.718565L439.2,160.90047160000003L440.40000000000003,177.54219500000002L441.59999999999997,193.21277540000003L442.8,207.52191786000003L444,220.13204340000004L445.2,230.76833635999998L446.4000000000001,239.22644494L447.6,245.37758051999998L448.8,249.17085738L450,250.63281876L451.2,249.864198L452.4,247.03406669999998L453.5999999999999,242.37161731999998L454.8,236.15591385999997L456,228.70401829999997L457.2,220.35795721999997L458.40000000000003,211.47103422L459.59999999999997,202.39401375999998L460.8,193.46170359999996L462,184.9804434L463.2,177.2169698L464.40000000000003,170.3890702L465.59999999999997,164.6583708L466.8,160.12551460000003L468,156.827894L469.20000000000005,154.74000759999998L470.40000000000003,153.77639739999998L471.59999999999997,153.79703600000002L472.79999999999995,154.61492940000002L474,156.00561779999998L475.20000000000005,157.71818660000002L476.40000000000003,159.4873368L477.59999999999997,161.0460272L478.79999999999995,162.1381778L480,162.5309184L481.20000000000005,162.0258918L482.40000000000003,160.4691464L483.59999999999997,157.7592198L484.79999999999995,153.85307480000003L486.00000000000006,148.7696374L487.20000000000005,142.5907788L488.40000000000003,135.4596822L489.59999999999997,127.57663619999997L490.79999999999995,119.192396L491.99999999999994,110.5993544L493.20000000000005,102.12084199999998L494.40000000000003,94.09895960000001L495.59999999999997,86.88139759999997L496.79999999999995,80.80774320000002L498,76.19580200000003L499.20000000000005,73.3284544L500.40000000000003,72.44156400000001L501.59999999999997,73.7134062L502.79999999999995,77.25604279999997L504,83.10898779999998L505.20000000000005,91.23543399999998L506.40000000000003,101.52121040000002L507.59999999999997,113.7765452L508.8,127.74059640000002L510,143.0886186L511.2,159.4415304L512.4000000000001,176.37755420000002L513.6,193.44552960000004L514.8,210.17942990000003L516,226.11357046L517.2,240.79796416L518.4000000000001,253.81327796000002L519.6,264.78485190000004L520.8,273.3952767L522,279.39507684L523.2,282.6111137L524.4000000000001,282.95240526L525.5999999999999,280.41315298L526.8,275.07286674L528,267.09358472L529.2,256.71428986L530.4,244.24272628L531.5999999999999,230.044913L532.8,214.53273507999998L534,198.15006100000002L535.2,181.3578882L536.4,164.61904919999998L537.5999999999999,148.3830306L538.8000000000001,133.07144220000004L540,119.06465480000001L541.2,106.69007539999997L542.4,96.21246700000002L543.5999999999999,87.82664159999997L544.8,81.65276720000003L546,77.73443120000003L547.2,76.03949620000003L548.4,76.46368600000004L549.5999999999999,78.83673379999996L550.8,82.93083139999999L552,88.47103600000001L553.2,95.1472174L554.4,102.62707460000003L555.5999999999999,110.56971459999998L556.8,118.63926959999999L558,126.51802600000002L559.2,133.91856839999997L560.4,140.59447619999997L561.5999999999999,146.34917439999998L562.8,151.04260839999998L564,154.5955026L565.2,156.99105759999998L566.4000000000001,158.27403379999998L567.6,158.54728380000003L568.8,157.96588060000002L570,156.72909400000003L571.2,155.07054360000004L572.4000000000001,153.24693159999998L573.6,151.52581019999997L574.8,150.17288080000003L576,149.43933500000003L577.2,149.54975080000003L578.4000000000001,150.6910354L579.6,153.002861L580.8,156.5699938L582,161.4168296L583.1999999999999,167.5043784L584.4000000000001,174.729833L585.6,182.92876900000002L586.8,191.87991000000002L588,201.31230186L589.2,210.91463856L590.4000000000001,220.34640078L591.6,229.25039658L592.8,237.26623456L594,244.04422276000003L595.2,249.25916528L596.4000000000001,252.62352948000003L597.6,253.89947524L600,249.54373492" stroke="#f58518" stroke-width="2"/></g></g><path class="foreground" aria-hidden="true" d="" display="none"/></g></g><g class="mark-group role-legend" role="graphics-symbol" aria-roledescription="legend" aria-label="Symbol legend titled 'position' for stroke color with 2 values: x1, x2"><g transform="translate(620,0)"><path class="background" aria-hidden="true" d="M0,0h45v40h-45Z" pointer-events="none"/><g><g class="mark-group role-legend-entry"><g transform="translate(0,16)"><path class="background" aria-hidden="true" d="M0,0h0v0h0Z" pointer-events="none"/><g><g class="mark-group role-scope" role="graphics-object" aria-roledescription="group mark container"><g transform="translate(0,0)"><path class="background" aria-hidden="true" d="M0,0h27v11h-27Z" pointer-events="none" opacity="1"/><g><g class="mark-symbol role-legend-symbol" pointer-events="none"><path transform="translate(6,6)" d="M-5,0L5,0" stroke="#4c78a8" stroke-width="1.5" opacity="1"/></g><g class="mark-text role-legend-label" pointer-events="none"><text text-anchor="start" transform="translate(16,9)" font-family="sans-serif" font-size="10px" fill="#000" opacity="1">x1</text></g></g><path class="foreground" aria-hidden="true" d="" pointer-events="none" display="none"/></g><g transform="translate(0,13)"><path class="background" aria-hidden="true" d="M0,0h27v11h-27Z" pointer-events="none" opacity="1"/><g><g class="mark-symbol role-legend-symbol" pointer-events="none"><path transform="translate(6,6)" d="M-5,0L5,0" stroke="#f58518" stroke-width="1.5" opacity="1"/></g><g class="mark-text role-legend-label" pointer-events="none"><text text-anchor="start" transform="translate(16,9)" font-family="sans-serif" font-size="10px" fill="#000" opacity="1">x2</text></g></g><path class="foreground" aria-hidden="true" d="" pointer-events="none" display="none"/></g></g></g><path class="foreground" aria-hidden="true" d="" pointer-events="none" display="none"/></g></g><g class="mark-text role-legend-title" pointer-events="none"><text text-anchor="start" transform="translate(0,9)" font-family="sans-serif" font-size="11px" font-weight="bold" fill="#000" opacity="1">position</text></g></g><path class="foreground" aria-hidden="true" d="" pointer-events="none" display="none"/></g></g></g><path class="foreground" aria-hidden="true" d="" display="none"/></g></g></g></svg>