<svg xmlns="http://www.w3.org/2000/svg" width="272" height="192">
    <style>line, path, circle,rect,polygon {
                          stroke: black;
                          stroke-width: 2;
                          stroke-opacity: 1;
                          fill-opacity: 1;
                          stroke-linecap: round;
                          stroke-linejoin: miter;
                        }

                    text {
                        /* This fix the spacing bug in svg text*/
                        white-space: pre;
                        fill: black;
                        }
                        rect.backdrop{
                            stroke: none;
                            fill: white;
                        }
                        .broken{
                            stroke-dasharray: 8;
                        }
                        .filled{
                            fill: black;
                        }
                        .bg_filled{
                            fill: white;
                        }
                        .nofill{
                            fill: white;
                        }

                        text {
                         font-family: monospace;
                         font-size: 14px;
                        }

                        .end_marked_arrow{
                            marker-end: url(#arrow);
                         }
                        .start_marked_arrow{
                            marker-start: url(#arrow);
                         }

                        .end_marked_diamond{
                            marker-end: url(#diamond);
                         }
                        .start_marked_diamond{
                            marker-start: url(#diamond);
                         }

                        .end_marked_circle{
                            marker-end: url(#circle);
                         }
                        .start_marked_circle{
                            marker-start: url(#circle);
                         }

                        .end_marked_open_circle{
                            marker-end: url(#open_circle);
                         }
                        .start_marked_open_circle{
                            marker-start: url(#open_circle);
                         }

                        .end_marked_big_open_circle{
                            marker-end: url(#big_open_circle);
                         }
                        .start_marked_big_open_circle{
                            marker-start: url(#big_open_circle);
                         }

                         
                        </style>
    <defs>
        <marker id="arrow" viewBox="-2 -2 8 8" refX="4" refY="2" markerWidth="7" markerHeight="7" orient="auto-start-reverse">
            <polygon points="0,0 0,4 4,2 0,0"></polygon>
        </marker>
        <marker id="diamond" viewBox="-2 -2 8 8" refX="4" refY="2" markerWidth="7" markerHeight="7" orient="auto-start-reverse">
            <polygon points="0,2 2,0 4,2 2,4 0,2"></polygon>
        </marker>
        <marker id="circle" viewBox="0 0 8 8" refX="4" refY="4" markerWidth="7" markerHeight="7" orient="auto-start-reverse">
            <circle cx="4" cy="4" r="2" class="filled"></circle>
        </marker>
        <marker id="open_circle" viewBox="0 0 8 8" refX="4" refY="4" markerWidth="7" markerHeight="7" orient="auto-start-reverse">
            <circle cx="4" cy="4" r="2" class="bg_filled"></circle>
        </marker>
        <marker id="big_open_circle" viewBox="0 0 8 8" refX="4" refY="4" markerWidth="7" markerHeight="7" orient="auto-start-reverse">
            <circle cx="4" cy="4" r="3" class="bg_filled"></circle>
        </marker>
    </defs>
    <rect class="backdrop" x="0" y="0" width="272" height="192"></rect>
    <line x1="8" y1="0" x2="0" y2="16" class="solid"></line>
    <line x1="8" y1="16" x2="0" y2="32" class="solid"></line>
    <line x1="8" y1="32" x2="0" y2="48" class="solid"></line>
    <line x1="8" y1="48" x2="0" y2="64" class="solid"></line>
    <line x1="8" y1="64" x2="0" y2="80" class="solid"></line>
    <line x1="8" y1="80" x2="0" y2="96" class="solid"></line>
    <line x1="8" y1="96" x2="0" y2="112" class="solid"></line>
    <line x1="8" y1="112" x2="0" y2="128" class="solid"></line>
    <line x1="8" y1="128" x2="0" y2="144" class="solid"></line>
    <line x1="8" y1="144" x2="0" y2="160" class="solid"></line>
    <line x1="8" y1="160" x2="0" y2="176" class="solid"></line>
    <text x="146" y="28" >L2</text>
    <text x="66" y="44" >L1</text>
    <text x="50" y="76" >k1</text>
    <text x="170" y="76" >k2</text>
    <text x="114" y="92" >m1</text>
    <text x="234" y="92" >m2</text>
    <text x="50" y="140" >x1</text>
    <line x1="72" y1="136" x2="120" y2="136" class="solid end_marked_arrow"></line>
    <text x="154" y="156" >x2</text>
    <line x1="176" y1="152" x2="240" y2="152" class="solid end_marked_arrow"></line>
    <g>
        <line x1="20" y1="0" x2="20" y2="176" class="solid"></line>
        <line x1="20" y1="24" x2="144" y2="24" class="solid"></line>
        <line x1="20" y1="40" x2="64" y2="40" class="solid"></line>
        <line x1="20" y1="88" x2="36" y2="88" class="solid"></line>
        <line x1="40" y1="80" x2="32" y2="96" class="solid"></line>
        <line x1="40" y1="80" x2="48" y2="96" class="solid"></line>
        <line x1="56" y1="80" x2="48" y2="96" class="solid"></line>
        <line x1="56" y1="80" x2="64" y2="96" class="solid"></line>
        <line x1="72" y1="80" x2="64" y2="96" class="solid"></line>
        <line x1="72" y1="80" x2="80" y2="96" class="solid"></line>
        <line x1="88" y1="80" x2="80" y2="96" class="solid"></line>
        <line x1="20" y1="136" x2="48" y2="136" class="solid"></line>
        <line x1="20" y1="152" x2="152" y2="152" class="solid"></line>
        <path d="M 104,72 A 4,4 0,0,0 100,76" class="nofill"></path>
        <line x1="100" y1="76" x2="100" y2="100" class="solid"></line>
        <line x1="104" y1="72" x2="136" y2="72" class="solid"></line>
        <path d="M 136,72 A 4,4 0,0,1 140,76" class="nofill"></path>
        <line x1="140" y1="76" x2="140" y2="100" class="solid"></line>
        <line x1="84" y1="88" x2="100" y2="88" class="solid"></line>
        <line x1="140" y1="88" x2="156" y2="88" class="solid"></line>
        <line x1="160" y1="80" x2="152" y2="96" class="solid"></line>
        <line x1="160" y1="80" x2="168" y2="96" class="solid"></line>
        <line x1="176" y1="80" x2="168" y2="96" class="solid"></line>
        <line x1="176" y1="80" x2="184" y2="96" class="solid"></line>
        <line x1="192" y1="80" x2="184" y2="96" class="solid"></line>
        <line x1="192" y1="80" x2="200" y2="96" class="solid"></line>
        <line x1="208" y1="80" x2="200" y2="96" class="solid"></line>
        <path d="M 100,100 A 4,4 0,0,0 104,104" class="nofill"></path>
        <line x1="104" y1="104" x2="136" y2="104" class="solid"></line>
        <path d="M 140,100 A 4,4 0,0,1 136,104" class="nofill"></path>
        <path d="M 224,72 A 4,4 0,0,0 220,76" class="nofill"></path>
        <line x1="220" y1="76" x2="220" y2="100" class="solid"></line>
        <line x1="224" y1="72" x2="256" y2="72" class="solid"></line>
        <path d="M 256,72 A 4,4 0,0,1 260,76" class="nofill"></path>
        <line x1="260" y1="76" x2="260" y2="100" class="solid"></line>
        <line x1="204" y1="88" x2="220" y2="88" class="solid"></line>
        <path d="M 220,100 A 4,4 0,0,0 224,104" class="nofill"></path>
        <line x1="224" y1="104" x2="256" y2="104" class="solid"></line>
        <path d="M 260,100 A 4,4 0,0,1 256,104" class="nofill"></path>
    </g>
    <g>
        <line x1="88" y1="40" x2="124" y2="40" class="solid"></line>
        <line x1="124" y1="32" x2="124" y2="48" class="solid"></line>
    </g>
    <g>
        <line x1="168" y1="24" x2="236" y2="24" class="solid"></line>
        <line x1="236" y1="16" x2="236" y2="32" class="solid"></line>
    </g>
</svg>